<svg width="70" height="57" viewBox="0 0 70 57" fill="none" xmlns="http://www.w3.org/2000/svg">
<g filter="url(#filter0_d_5_272)">
<path d="M43.7017 2.28027L43.026 3.79469C48.1779 4.99494 52.8534 7.70813 56.4516 11.5857C50.7347 8.36422 45.0749 5.03183 35.1904 5.03183C25.3058 5.03183 19.6461 8.36022 13.9309 11.5857C17.5514 7.73604 22.2177 5.02808 27.3565 3.79469L26.6842 2.28027C21.4848 3.00281 16.5826 5.13557 12.5096 8.44712C12.5096 8.44712 5.248 19.9827 4 42.5274C6.25923 45.2748 9.06618 47.5213 12.2419 49.1235C15.4176 50.7258 18.8923 51.6487 22.4445 51.8334L24.741 48.4467C19.9195 46.6201 15.6906 43.5074 12.5136 39.4466C17.1055 43.2466 24.0241 46.3292 35.1961 46.3292C46.3681 46.3292 53.2867 43.246 57.8786 39.4466C54.7013 43.5075 50.4726 46.6207 45.6512 48.4484L47.938 51.8334C51.49 51.6481 54.9646 50.7248 58.1402 49.1226C61.3158 47.5204 64.1228 45.2743 66.3825 42.5274C65.1345 19.981 57.8757 8.44655 57.8757 8.44655C57.8757 8.44655 51.3887 2.91428 43.7017 2.28027ZM43.9264 38.0682C41.1823 38.0682 38.9338 34.9851 38.9338 31.1856C38.9338 27.3861 41.1789 24.303 43.9264 24.303C46.674 24.303 48.919 27.3861 48.919 31.1856C48.919 34.9851 46.6722 38.0682 43.9258 38.0682H43.9264ZM26.4521 38.0682C23.7079 38.0682 21.4595 34.9851 21.4595 31.1856C21.4595 27.3861 23.7034 24.303 26.4521 24.303C29.2008 24.303 31.4447 27.3861 31.4447 31.1856C31.4447 34.9851 29.1985 38.0682 26.4526 38.0682" fill="white"/>
</g>
<defs>
<filter id="filter0_d_5_272" x="0.569847" y="0.565197" width="69.2431" height="56.4135" filterUnits="userSpaceOnUse" color-interpolation-filters="sRGB">
<feFlood flood-opacity="0" result="BackgroundImageFix"/>
<feColorMatrix in="SourceAlpha" type="matrix" values="0 0 0 0 0 0 0 0 0 0 0 0 0 0 0 0 0 0 127 0" result="hardAlpha"/>
<feOffset dy="1.71508"/>
<feGaussianBlur stdDeviation="1.71508"/>
<feColorMatrix type="matrix" values="0 0 0 0 0 0 0 0 0 0 0 0 0 0 0 0 0 0 0.502 0"/>
<feBlend mode="normal" in2="BackgroundImageFix" result="effect1_dropShadow_5_272"/>
<feBlend mode="normal" in="SourceGraphic" in2="effect1_dropShadow_5_272" result="shape"/>
</filter>
</defs>
</svg>
