<svg width="28" height="27" viewBox="0 0 28 27" fill="none" xmlns="http://www.w3.org/2000/svg">
<path d="M11.0993 11.7481C11.1637 11.3414 11.3034 10.9503 11.5112 10.5947C11.7084 10.2566 11.9868 9.973 12.3212 9.76945C12.7043 9.56077 13.1353 9.45573 13.5715 9.4647C13.8677 9.47167 14.1605 9.52989 14.4369 9.63676C14.7039 9.74783 14.9466 9.91005 15.1514 10.1143C15.3452 10.3209 15.5032 10.5585 15.6187 10.8171C15.737 11.0846 15.8022 11.3726 15.8105 11.665H18.2696C18.2519 11.0755 18.1213 10.4949 17.8846 9.95463C17.6611 9.44597 17.3335 8.98975 16.923 8.61534C16.4891 8.23132 15.9854 7.9343 15.4394 7.74046C14.826 7.52649 14.1795 7.4233 13.53 7.43572C12.7288 7.41522 11.9328 7.56895 11.197 7.88628C10.5645 8.16678 10.0017 8.58324 9.54854 9.106C9.10058 9.63196 8.76823 10.2462 8.57305 10.909C8.35715 11.6138 8.24611 12.3466 8.24352 13.0838V13.4417C8.24153 14.1782 8.34789 14.911 8.5592 15.6165C8.75152 16.2765 9.08429 16.8871 9.53469 17.4064C9.98852 17.9252 10.5514 18.3372 11.1831 18.613C11.9209 18.9241 12.7155 19.0775 13.5161 19.0635C14.1335 19.0662 14.7467 18.9631 15.3293 18.7588C15.8703 18.5724 16.373 18.2893 16.8129 17.9233C17.2312 17.5794 17.5767 17.1556 17.8292 16.6766C18.0819 16.2066 18.2229 15.6847 18.2412 15.1514H15.7835C15.7718 15.4198 15.7014 15.6823 15.5772 15.9206C15.4552 16.1552 15.2871 16.3627 15.0829 16.5308C14.8718 16.7072 14.6294 16.8423 14.3684 16.9288C14.1019 17.0137 13.8242 17.0584 13.5445 17.0615C13.1171 17.0708 12.695 16.9655 12.3219 16.7568C11.9876 16.5541 11.709 16.2715 11.5112 15.9344C11.3034 15.5742 11.1637 15.1787 11.0993 14.7679C11.0285 14.3293 10.9917 13.886 10.9892 13.4417V13.0838C10.9906 12.6351 11.0274 12.1873 11.0993 11.7445V11.7481ZM13.7363 0C6.15402 0 0 5.94041 0 13.2595C0 20.5785 6.15402 26.5189 13.7363 26.5189C21.3185 26.5189 27.4726 20.5785 27.4726 13.2595C27.4726 5.94041 21.3193 0 13.7363 0ZM13.7363 23.8673C10.8737 23.9132 8.10963 22.8225 6.04979 20.8341C3.98995 18.8457 2.80231 16.1219 2.74711 13.2595C2.80231 10.397 3.98995 7.67322 6.04979 5.68485C8.10963 3.69648 10.8737 2.60573 13.7363 2.6516C16.5989 2.60573 19.3629 3.69648 21.4228 5.68485C23.4826 7.67322 24.6702 10.397 24.7255 13.2595C24.6702 16.1219 23.4826 18.8457 21.4228 20.8341C19.3629 22.8225 16.5989 23.9132 13.7363 23.8673Z" fill="white"/>
</svg>
