<svg width="57" height="57" viewBox="0 0 57 57" fill="none" xmlns="http://www.w3.org/2000/svg">
<path d="M52.4629 14.5979C52.2115 11.4111 50.7981 8.42767 48.4913 6.21461C45.9633 3.80264 42.8721 2.73758 39.4843 2.55807C33.7102 2.24249 20.0022 2.04355 15.1874 2.82962C9.69055 3.72604 6.08489 6.93437 4.56361 12.3672C3.39279 16.5462 3.62661 35.81 4.30807 39.941C5.23993 45.5893 8.57975 49.2116 14.1766 50.654C18.0515 51.6533 37.0935 51.5252 41.3663 50.8335C47.0192 49.9188 50.6552 46.5995 52.1261 41.0107C53.2495 36.7201 52.8545 18.4683 52.4629 14.5979ZM47.9413 39.1418C47.2839 43.4295 44.4363 46.089 40.1229 46.5607C36.1605 46.9946 18.4677 47.2335 14.7923 46.2062C11.277 45.224 9.2675 42.8075 8.68209 39.2687C8.12469 35.8889 7.98748 19.0011 8.6758 14.4819C9.3241 10.2267 12.17 7.57295 16.4588 7.0933C20.81 6.60622 36.468 6.55305 40.6368 7.19163C44.9177 7.84908 47.5715 10.7013 48.0414 15.0238C48.4799 19.052 48.6051 34.8095 47.9413 39.1418ZM28.3049 14.2389C25.8139 14.2376 23.3785 14.9751 21.3067 16.358C19.2348 17.7408 17.6196 19.707 16.6652 22.0079C15.7109 24.3088 15.4602 26.841 15.945 29.2843C16.4298 31.7277 17.6282 33.9724 19.3887 35.7346C21.1493 37.4968 23.3928 38.6974 25.8357 39.1845C28.2786 39.6716 30.811 39.4234 33.1128 38.4712C35.4146 37.519 37.3823 35.9057 38.7672 33.8351C40.152 31.7646 40.8918 29.3299 40.8929 26.839C40.8939 25.185 40.5691 23.5471 39.937 22.0188C39.3048 20.4904 38.3778 19.1015 37.2089 17.9314C36.0399 16.7614 34.6519 15.833 33.1242 15.1995C31.5964 14.5659 29.9588 14.2395 28.3049 14.2389ZM28.2191 34.9684C26.6084 34.9538 25.0382 34.4618 23.707 33.5548C22.3759 32.6477 21.3436 31.3663 20.7408 29.8726C20.1379 28.3789 19.9915 26.7399 20.3201 25.163C20.6487 23.5861 21.4376 22.142 22.5869 21.0134C23.7362 19.8848 25.1943 19.1224 26.777 18.8225C28.3596 18.5226 29.9956 18.6988 31.4781 19.3287C32.9606 19.9586 34.2231 21.014 35.1058 22.3614C35.9885 23.7088 36.4518 25.2877 36.4372 26.8984C36.4276 27.968 36.2074 29.0252 35.7892 30.0096C35.371 30.994 34.763 31.8864 33.9998 32.6358C33.2367 33.3852 32.3334 33.9769 31.3415 34.3772C30.3496 34.7774 29.2886 34.9783 28.2191 34.9684ZM44.3408 13.7627C44.3391 14.3457 44.1646 14.9151 43.8393 15.399C43.514 15.8828 43.0526 16.2594 42.5133 16.481C41.9741 16.7026 41.3812 16.7594 40.8097 16.6441C40.2381 16.5288 39.7136 16.2467 39.3025 15.8333C38.8913 15.42 38.6119 14.894 38.4996 14.3219C38.3873 13.7498 38.4472 13.1572 38.6716 12.6191C38.8961 12.081 39.275 11.6216 39.7606 11.2988C40.2461 10.9761 40.8164 10.8045 41.3995 10.8059C41.7867 10.8069 42.1699 10.8842 42.5272 11.0334C42.8846 11.1826 43.209 11.4007 43.482 11.6752C43.7551 11.9498 43.9713 12.2755 44.1185 12.6336C44.2656 12.9918 44.3408 13.3755 44.3397 13.7627H44.3408Z" fill="white"/>
<g filter="url(#filter0_d_5_275)">
<path d="M52.4629 14.5979C52.2115 11.4111 50.7981 8.42767 48.4913 6.21461C45.9633 3.80264 42.8721 2.73758 39.4843 2.55807C33.7102 2.24249 20.0022 2.04355 15.1874 2.82962C9.69055 3.72604 6.08489 6.93437 4.56361 12.3672C3.39279 16.5462 3.62661 35.81 4.30807 39.941C5.23993 45.5893 8.57975 49.2116 14.1766 50.654C18.0515 51.6533 37.0935 51.5252 41.3663 50.8335C47.0192 49.9188 50.6552 46.5995 52.1261 41.0107C53.2495 36.7201 52.8545 18.4683 52.4629 14.5979ZM47.9413 39.1418C47.2839 43.4295 44.4363 46.089 40.1229 46.5607C36.1605 46.9946 18.4677 47.2335 14.7923 46.2062C11.277 45.224 9.2675 42.8075 8.68209 39.2687C8.12469 35.8889 7.98748 19.0011 8.6758 14.4819C9.3241 10.2267 12.17 7.57295 16.4588 7.0933C20.81 6.60622 36.468 6.55305 40.6368 7.19163C44.9177 7.84908 47.5715 10.7013 48.0414 15.0238C48.4799 19.052 48.6051 34.8095 47.9413 39.1418ZM28.3049 14.2389C25.8139 14.2376 23.3785 14.9751 21.3067 16.358C19.2348 17.7408 17.6196 19.707 16.6652 22.0079C15.7109 24.3088 15.4602 26.841 15.945 29.2843C16.4298 31.7277 17.6282 33.9724 19.3887 35.7346C21.1493 37.4968 23.3928 38.6974 25.8357 39.1845C28.2786 39.6716 30.811 39.4234 33.1128 38.4712C35.4146 37.519 37.3823 35.9057 38.7672 33.8351C40.152 31.7646 40.8918 29.3299 40.8929 26.839C40.8939 25.185 40.5691 23.5471 39.937 22.0188C39.3048 20.4904 38.3778 19.1015 37.2089 17.9314C36.0399 16.7614 34.6519 15.833 33.1242 15.1995C31.5964 14.5659 29.9588 14.2395 28.3049 14.2389ZM28.2191 34.9684C26.6084 34.9538 25.0382 34.4618 23.707 33.5548C22.3759 32.6477 21.3436 31.3663 20.7408 29.8726C20.1379 28.3789 19.9915 26.7399 20.3201 25.163C20.6487 23.5861 21.4376 22.142 22.5869 21.0134C23.7362 19.8848 25.1943 19.1224 26.777 18.8225C28.3596 18.5226 29.9956 18.6988 31.4781 19.3287C32.9606 19.9586 34.2231 21.014 35.1058 22.3614C35.9885 23.7088 36.4518 25.2877 36.4372 26.8984C36.4276 27.968 36.2074 29.0252 35.7892 30.0096C35.371 30.994 34.763 31.8864 33.9998 32.6358C33.2367 33.3852 32.3334 33.9769 31.3415 34.3772C30.3496 34.7774 29.2886 34.9783 28.2191 34.9684ZM44.3408 13.7627C44.3391 14.3457 44.1646 14.9151 43.8393 15.399C43.514 15.8828 43.0526 16.2594 42.5133 16.481C41.9741 16.7026 41.3812 16.7594 40.8097 16.6441C40.2381 16.5288 39.7136 16.2467 39.3025 15.8333C38.8913 15.42 38.6119 14.894 38.4996 14.3219C38.3873 13.7498 38.4472 13.1572 38.6716 12.6191C38.8961 12.081 39.275 11.6216 39.7606 11.2988C40.2461 10.9761 40.8164 10.8045 41.3995 10.8059C41.7867 10.8069 42.1699 10.8842 42.5272 11.0334C42.8846 11.1826 43.209 11.4007 43.482 11.6752C43.7551 11.9498 43.9713 12.2755 44.1185 12.6336C44.2656 12.9918 44.3408 13.3755 44.3397 13.7627H44.3408Z" fill="white"/>
</g>
<defs>
<filter id="filter0_d_5_275" x="0.311058" y="0.565197" width="55.9824" height="55.958" filterUnits="userSpaceOnUse" color-interpolation-filters="sRGB">
<feFlood flood-opacity="0" result="BackgroundImageFix"/>
<feColorMatrix in="SourceAlpha" type="matrix" values="0 0 0 0 0 0 0 0 0 0 0 0 0 0 0 0 0 0 127 0" result="hardAlpha"/>
<feOffset dy="1.71508"/>
<feGaussianBlur stdDeviation="1.71508"/>
<feColorMatrix type="matrix" values="0 0 0 0 0 0 0 0 0 0 0 0 0 0 0 0 0 0 0.502 0"/>
<feBlend mode="normal" in2="BackgroundImageFix" result="effect1_dropShadow_5_275"/>
<feBlend mode="normal" in="SourceGraphic" in2="effect1_dropShadow_5_275" result="shape"/>
</filter>
</defs>
</svg>
