<svg width="62" height="52" viewBox="0 0 62 52" fill="none" xmlns="http://www.w3.org/2000/svg">
<g filter="url(#filter0_d_5_280)">
<path fill-rule="evenodd" clip-rule="evenodd" d="M20.0886 36.6456C17.7636 36.5909 15.5132 35.8146 13.649 34.4241C11.7848 33.0336 10.3991 31.0979 9.68385 28.8849C11.2728 29.186 12.9083 29.137 14.4763 28.7414C14.5317 28.7212 14.5853 28.6964 14.6364 28.6671C13.1393 28.3552 11.7223 27.7388 10.4733 26.8564C9.22433 25.974 8.17006 24.8442 7.37592 23.5373C6.26606 21.7558 5.69745 19.6903 5.73917 17.5917C7.26614 18.4315 8.97096 18.8962 10.7129 18.9472C8.38008 17.347 6.73714 14.9254 6.11248 12.1664C5.46277 9.41298 5.89239 6.51532 7.31304 4.0689C13.3667 11.199 21.0291 15.1083 30.3722 15.7509C30.3054 15.3095 30.2362 14.9185 30.1916 14.5274C29.851 11.9738 30.4306 9.38239 31.8266 7.21721C32.6428 5.87128 33.7448 4.72119 35.0547 3.84836C36.3646 2.97553 37.8503 2.4013 39.4067 2.16631C41.1685 1.84097 42.9834 1.95498 44.6906 2.49823C46.3978 3.04148 47.9448 3.99724 49.1946 5.28089C49.2656 5.36514 49.3596 5.42677 49.4652 5.45817C49.5708 5.48956 49.6832 5.48934 49.7886 5.45754C52.0732 4.96654 54.2675 4.12312 56.2928 2.95753C56.3411 2.92942 56.391 2.90385 56.442 2.88093C56.4511 2.8735 56.47 2.87521 56.5163 2.87521C55.6759 5.39752 53.9831 7.54833 51.729 8.95802C53.8769 8.71659 55.9762 8.15246 57.9558 7.28467L58.0004 7.33498C57.5722 7.89524 57.1606 8.46693 56.7158 9.01061C55.5326 10.4673 54.1664 11.7652 52.6511 12.8724C52.591 12.9084 52.5421 12.9604 52.5099 13.0226C52.4777 13.0848 52.4634 13.1547 52.4687 13.2246C52.5328 14.8822 52.4624 16.5423 52.2584 18.1886C51.831 21.6381 50.8588 24.998 49.3782 28.1429C47.8687 31.3977 45.8248 34.3768 43.3314 36.9566C39.185 41.2868 33.8321 44.2697 27.9683 45.5177C25.9199 45.9583 23.8348 46.2058 21.7403 46.2569C15.4309 46.4808 9.19937 44.8081 3.8503 41.4547C3.78112 41.4136 3.7108 41.3633 3.58789 41.2832C7.38607 41.7231 11.2338 41.192 14.7708 39.7396C16.6786 38.9606 18.4685 37.9192 20.0886 36.6456Z" fill="white"/>
</g>
<defs>
<filter id="filter0_d_5_280" x="0.157737" y="0.270031" width="61.2724" height="51.1521" filterUnits="userSpaceOnUse" color-interpolation-filters="sRGB">
<feFlood flood-opacity="0" result="BackgroundImageFix"/>
<feColorMatrix in="SourceAlpha" type="matrix" values="0 0 0 0 0 0 0 0 0 0 0 0 0 0 0 0 0 0 127 0" result="hardAlpha"/>
<feOffset dy="1.71508"/>
<feGaussianBlur stdDeviation="1.71508"/>
<feColorMatrix type="matrix" values="0 0 0 0 0 0 0 0 0 0 0 0 0 0 0 0 0 0 0.502 0"/>
<feBlend mode="normal" in2="BackgroundImageFix" result="effect1_dropShadow_5_280"/>
<feBlend mode="normal" in="SourceGraphic" in2="effect1_dropShadow_5_280" result="shape"/>
</filter>
</defs>
</svg>
